<?xml version="1.0" encoding="UTF-8"?>
<!-- Created with Inkscape (http://www.inkscape.org/) -->
<svg width="27mm" height="73.05mm" version="1.1" viewBox="0 0 27 73.05" xmlns="http://www.w3.org/2000/svg" xmlns:cc="http://creativecommons.org/ns#" xmlns:dc="http://purl.org/dc/elements/1.1/" xmlns:rdf="http://www.w3.org/1999/02/22-rdf-syntax-ns#">
 <metadata>
  <rdf:RDF>
   <cc:Work rdf:about="">
    <dc:format>image/svg+xml</dc:format>
    <dc:type rdf:resource="http://purl.org/dc/dcmitype/StillImage"/>
    <dc:title/>
   </cc:Work>
  </rdf:RDF>
 </metadata>
 <g transform="translate(0,-223.95)">
  <path d="m19.344 223.95c-4.0812 0.12729-7.2597 5.2338-7.3267 10.782-0.01708 1.4147 0.50752 5.7352 1.2897 11.385-0.74228 0.57875-1.5449 1.1614-2.4302 1.7455-11.117 7.3352-10.787 12.812-10.876 17.453-0.088938 4.6415 5.7586 14.812 16.029 14.68 0.79672-0.0102 1.5297-0.0763 2.2165-0.18069 0.22322 1.45 0.41176 2.6047 0.52634 3.1185 0.41979 1.8822 1.7607 6.2422 0.89687 8.8474-0.86379 2.6052-2.7208 4.1144-5.8385 4.261s-5.0129-1.2624-4.5458-1.8323c0.46713-0.56989 3.8351-1.401 4.0362-3.7738 0.20102-2.3727-1.3312-4.3441-3.5266-4.4351-2.6537-0.10996-4.04 2.0576-4.1971 4.7346-0.15706 2.6769 3.4602 5.6714 6.7729 6.2085 3.8002 0.44107 7.4348-1.861 8.1931-4.8076 0.86932-3.3778-0.19064-6.0175-0.56035-8.5032-0.11972-0.80492-0.36685-2.3082-0.65374-4.029 7.1293-1.7125 7.744-8.5654 7.6399-10.83-0.11848-2.5763-1.0249-10.543-9.8737-9.8229-0.3999 0.0325-0.77707 0.0773-1.1441 0.12741-0.43482-2.8367-0.83958-5.6189-1.1704-8.2195 9.7735-6.3849 8.6829-17.548 8.6829-17.548s-0.05956-9.4888-4.1407-9.3615zm-0.0873 5.2345c0.87914-7e-3 1.5572 0.34402 1.7404 0.53954 0.53297 0.56881 0.34108 3.6144 0.34108 3.6144s0.50875 5.6625-7.145 12.064c-0.34945-3.7841-0.44309-6.8559-0.12182-8.6753 1.0961-6.2074 3.5069-7.5284 5.1853-7.5424zm-5.2096 22.149c0.36194 2.5063 0.75829 5.1714 1.1598 7.8652-7.0259 1.2631-7.559 5.84-7.5795 7.9297-0.012768 1.3038 0.49229 2.7677 1.3009 3.8824 1.0648 1.468 1.9753 2.193 2.6688 2.6383 1.539 0.9883 4.3134 2.8773 0.98721-0.72988-3.0811-3.3414-1.5551-7.8022 3.3124-9.0946 0.04684 0.31127 0.09122 0.61394 0.13806 0.92478 0.67206 4.4597 1.4615 10.072 2.0495 13.976-1.3222 0.22503-2.9265 0.18548-4.8762-0.23856-10.906-2.372-10.37-11.485-10.37-11.485 0.02261-0.42955 0.7859-9.3708 11.209-15.669zm4.5843 12.143c4.4856 0.0824 5.3153 3.9089 5.5365 6.61 0.07336 0.89573 7.37e-4 6.7926-5.0081 8.3809-0.58211-3.4721-1.3176-7.7978-1.9369-11.545-0.17958-1.0868-0.35604-2.1816-0.53244-3.2748 0.14085-0.0255 0.28227-0.0505 0.42788-0.0711 0.54565-0.077 1.049-0.10851 1.5131-0.1z"/>
 </g>
</svg>
